<svg xmlns="http://www.w3.org/2000/svg" width="64.121" height="60" viewBox="0 0 64.121 60">
  <g id="educative-toys-maths" transform="translate(0 -0.772)">
    <path id="Pfad_19" data-name="Pfad 19" d="M60.781.772H3.34A3.345,3.345,0,0,0,0,4.112V28.157A3.345,3.345,0,0,0,3.34,31.5H60.781a3.345,3.345,0,0,0,3.34-3.34V4.112A3.345,3.345,0,0,0,60.781.772ZM13.359,24.149a8.015,8.015,0,1,1,8.015-8.015A8.015,8.015,0,0,1,13.359,24.149ZM38.74,22.814A1.336,1.336,0,0,1,37.4,24.149H28.053a1.336,1.336,0,0,1-1.336-1.336V9.455a1.336,1.336,0,0,1,1.336-1.336H37.4A1.336,1.336,0,0,1,38.74,9.455Zm17.876,1.336H44.909a1.336,1.336,0,0,1-1.194-1.934l5.854-11.7a1.336,1.336,0,0,1,2.389,0L57.81,22.22a1.336,1.336,0,0,1-1.194,1.929Z" transform="translate(0 0)" fill="#e2e8f0"/>
    <circle id="Ellipse_1" data-name="Ellipse 1" cx="8.015" cy="8.015" r="8.015" transform="translate(46.755 37.508)" fill="#e2e8f0"/>
    <path id="Pfad_20" data-name="Pfad 20" d="M24.871,23.352l-11.582-6.2a2.672,2.672,0,0,0-3.935,2.279L9.023,31.183a2.672,2.672,0,0,0,3.8,2.5l11.905-5.546a2.672,2.672,0,0,0,.136-4.78Z" transform="translate(15.081 26.844)" fill="#e2e8f0"/>
    <path id="Pfad_21" data-name="Pfad 21" d="M17.842,18.15,11.187,14.13a2.672,2.672,0,0,0-3.647.978L.861,26.67a2.672,2.672,0,0,0,.951,3.639l6.655,4.008a2.672,2.672,0,0,0,1.336.361,2.7,2.7,0,0,0,.7-.094,2.656,2.656,0,0,0,1.624-1.245L18.8,21.773a2.65,2.65,0,0,0,.267-2.028A2.624,2.624,0,0,0,17.842,18.15Z" transform="translate(0.836 21.733)" fill="#e2e8f0"/>
  </g>
</svg>
