<svg xmlns="http://www.w3.org/2000/svg" width="16" height="16" viewBox="0 0 12 13.091"><g transform="translate(-1)"><path d="M12.449,7.5H4.319a.273.273,0,0,0-.273.3l.7,7.711a1.091,1.091,0,0,0,1.087.992h5.1a1.091,1.091,0,0,0,1.087-.992l.7-7.71a.273.273,0,0,0-.272-.3ZM7.431,14.591a.409.409,0,1,1-.818,0V9.682a.409.409,0,1,1,.818,0Zm2.727,0a.409.409,0,1,1-.818,0V9.682a.409.409,0,1,1,.818,0Z" transform="translate(-1.384 -3.409)" fill="#5c5a67"/><path d="M12.455,2.182H9.864a.136.136,0,0,1-.136-.136V1.364A1.364,1.364,0,0,0,8.364,0H5.636A1.364,1.364,0,0,0,4.273,1.364v.682a.136.136,0,0,1-.136.136H1.545a.545.545,0,1,0,0,1.091H12.455a.545.545,0,1,0,0-1.091ZM5.364,2.045V1.364a.273.273,0,0,1,.273-.273H8.364a.273.273,0,0,1,.273.273v.682a.136.136,0,0,1-.136.136h-3A.136.136,0,0,1,5.364,2.045Z" fill="#5c5a67"/></g></svg>