<svg xmlns="http://www.w3.org/2000/svg" width="58.646" height="56" viewBox="0 0 58.646 56"><defs><style>.a{fill:#ffffff;}</style></defs><g transform="translate(-291.842 -908.347)"><g transform="translate(291.842 908.347)"><g transform="translate(0)"><path class="a" d="M457.456,1049.219c0,4.431.083,8.864-.02,13.293-.146,6.276-3.278,10.663-8.885,13.326a14.73,14.73,0,0,1-6.419,1.318c-6.913-.007-13.825.014-20.738-.009a22.956,22.956,0,0,1-11.871-2.94,19.8,19.8,0,0,1-8.535-10.793,35.7,35.7,0,0,1-2.005-10.26c-.091-1.619-.112-3.243-.141-4.865-.019-1.126.246-1.334,1.4-1.379a10.045,10.045,0,0,0,2.4-.272,4.366,4.366,0,0,0,3.2-4.306c.018-2.135,0-4.269,0-6.4a14.729,14.729,0,0,1,12.081-14.454,19.338,19.338,0,0,1,3.316-.294q10.648-.039,21.3-.009a14.964,14.964,0,0,1,14.5,11.316,14.674,14.674,0,0,1,.39,3.3c.043,4.477.018,8.955.018,13.432Zm-54.1,1.927a36.033,36.033,0,0,0,1.285,8.884,17.95,17.95,0,0,0,4.788,8.412,16.136,16.136,0,0,0,11.329,4.209q10.923.129,21.848,0a10.445,10.445,0,0,0,10.4-10.565c-.045-8.628.006-17.256-.033-25.883a11.8,11.8,0,0,0-.487-3.349,10.631,10.631,0,0,0-10.31-7.242q-10.368-.012-20.736.01a13.786,13.786,0,0,0-2.758.271,10.258,10.258,0,0,0-8.353,10.125c.057,2.109.076,4.224-.018,6.33a10.773,10.773,0,0,1-.611,3.25A8.955,8.955,0,0,1,403.357,1051.147Z" transform="translate(-398.842 -1021.159)"/><path class="a" d="M502.082,1165.392c1.56-.373,2.064.5,2.579,1.821a8.88,8.88,0,0,0,9.167,5.507,9.006,9.006,0,0,0,7.94-6.4c.192-.646.479-.924,1.161-.892.808.038,1.622-.051,2.43-.015s1.02.365.851,1.139a13.479,13.479,0,0,1-26.294.171c-.233-1.009.006-1.313,1.053-1.333C501.34,1165.386,501.711,1165.392,502.082,1165.392Z" transform="translate(-480.223 -1137.313)"/></g></g></g></svg>